<svg width="92" height="67" viewBox="0 0 92 67" fill="none" xmlns="http://www.w3.org/2000/svg">
<rect width="92" height="67" fill="#F5F5F5"/>
<path d="M2.10965 1.73401H89.5977" stroke="black" stroke-width="3" stroke-linecap="round"/>
<path d="M1.75545 1.73401V64.7821" stroke="black" stroke-width="3" stroke-linecap="round"/>
<path d="M90 2.40437V62.5172" stroke="black" stroke-width="3" stroke-linecap="round"/>
<path d="M1.80051 65.1074L89.5415 65.1074" stroke="black" stroke-width="3" stroke-linecap="round"/>
<path d="M90 60V65" stroke="black" stroke-width="3" stroke-linecap="round"/>
<path d="M7 42H85" stroke="black" stroke-width="3" stroke-linecap="round"/>
<path d="M7 42V58" stroke="black" stroke-width="3" stroke-linecap="round"/>
<path d="M85 42V57" stroke="black" stroke-width="3" stroke-linecap="round"/>
<path d="M7 58H85" stroke="black" stroke-width="3" stroke-linecap="round"/>
<path d="M85 57V58" stroke="black" stroke-width="3" stroke-linecap="round"/>
<path d="M27 20.6107C27 25.8574 22.7467 30.1107 17.5 30.1107C12.2533 30.1107 8 25.8574 8 20.6107C8 15.3639 12.2533 11.1107 17.5 11.1107C22.7467 11.1107 27 15.3639 27 20.6107Z" fill="black"/>
<path d="M83.2627 20.3395C83.2627 25.5862 79.0094 29.8395 73.7627 29.8395C68.516 29.8395 64.2627 25.5862 64.2627 20.3395C64.2627 15.0928 68.516 10.8395 73.7627 10.8395C79.0094 10.8395 83.2627 15.0928 83.2627 20.3395Z" fill="black"/>
<path d="M42.3488 24.3445V34.7674" stroke="black" stroke-width="3" stroke-linecap="round"/>
<path d="M23 43V58" stroke="black" stroke-width="3" stroke-linecap="round"/>
<path d="M38 43V57" stroke="black" stroke-width="3" stroke-linecap="round"/>
<path d="M54 43V57" stroke="black" stroke-width="3" stroke-linecap="round"/>
<path d="M69 42V57" stroke="black" stroke-width="3" stroke-linecap="round"/>
</svg>
